# xmcd
#
# Track frame offsets:
#	150
#	19724
#	44598
#	60355
#	71477
#	86964
#	107326
#	118302
#	136416
#	151052
#	165728
#	180870
#	204549
#	214928
#
# Disc length: 3021 seconds
#
# Revision: 0
# Processed by: cddbd v1.5.2PL0 Copyright (c) Steve Scherf et al.
# Submitted via: EasyCDDAExtractor 11.1.0.1
#
DISCID=bd0bcb0e
DTITLE=SaucePan Bach - Savage Folk And Primitive Blues
DYEAR=1998
DGENRE=Blues
TTITLE0=Medicine Woman
TTITLE1=Black Dog Mood
TTITLE2=Can This Be Love?
TTITLE3=Nota Bene
TTITLE4=Gaze In Your Eyes
TTITLE5=Hunger
TTITLE6=Volcano Burning
TTITLE7=Cry On My Heart
TTITLE8=Honour Thy Folks
TTITLE9=Hick It Up
TTITLE10=Sing Your Name
TTITLE11=Such Is Man
TTITLE12=Please Be Real
TTITLE13=Walk The Precipice
EXTD=
EXTT0=
EXTT1=
EXTT2=
EXTT3=
EXTT4=
EXTT5=
EXTT6=
EXTT7=
EXTT8=
EXTT9=
EXTT10=
EXTT11=
EXTT12=
EXTT13=
PLAYORDER=
